<svg width="60" height="60" viewBox="0 0 60 60" fill="none" xmlns="http://www.w3.org/2000/svg">
<path d="M37.6825 4.99998H22.3425C8.3325 4.99998 5 8.33248 5 22.3175V37.6575C5 51.665 8.3075 55 22.3175 55H37.6575C51.665 55 55 51.6925 55 37.6825V22.3425C55 8.33248 51.6925 4.99998 37.6825 4.99998ZM45.365 40.675H41.7175C40.3375 40.675 39.9225 39.5575 37.4475 37.0825C35.2875 35 34.375 34.74 33.8275 34.74C33.0725 34.74 32.865 34.9475 32.865 35.99V39.27C32.865 40.1575 32.5775 40.6775 30.26 40.6775C28.0109 40.5263 25.8298 39.843 23.8965 38.6838C21.9632 37.5246 20.3329 35.9227 19.14 34.01C16.3079 30.485 14.3374 26.3478 13.385 21.9275C13.385 21.38 13.5925 20.885 14.635 20.885H18.28C19.2175 20.885 19.555 21.3025 19.9225 22.265C21.6925 27.475 24.7125 32.005 25.9375 32.005C26.4075 32.005 26.6125 31.7975 26.6125 30.625V25.26C26.4575 22.8125 25.1575 22.605 25.1575 21.72C25.1742 21.4866 25.2812 21.2688 25.4557 21.1129C25.6303 20.957 25.8587 20.8753 26.0925 20.885H31.8225C32.605 20.885 32.865 21.275 32.865 22.2125V29.4525C32.865 30.235 33.2025 30.495 33.4375 30.495C33.9075 30.495 34.27 30.235 35.13 29.375C36.9772 27.1224 38.4863 24.6127 39.61 21.925C39.7249 21.6021 39.9422 21.3257 40.2288 21.138C40.5154 20.9502 40.8556 20.8613 41.1975 20.885H44.845C45.9375 20.885 46.17 21.4325 45.9375 22.2125C44.6112 25.1836 42.9702 28.0038 41.0425 30.625C40.65 31.225 40.4925 31.5375 41.0425 32.24C41.405 32.7875 42.6825 33.855 43.5425 34.87C44.7923 36.1166 45.8301 37.5589 46.615 39.14C46.9275 40.155 46.405 40.675 45.365 40.675Z" fill="#171717"/>
</svg>
