<svg width="19" height="10" viewBox="0 0 19 10" fill="none" xmlns="http://www.w3.org/2000/svg">
<path fill-rule="evenodd" clip-rule="evenodd" d="M8.52755 0.381774C8.78108 0.137323 9.1249 -1.51302e-06 9.48339 -1.48168e-06C9.84188 -1.45034e-06 10.1857 0.137324 10.4392 0.381774L18.0873 7.75815C18.2164 7.87844 18.3194 8.02232 18.3902 8.18141C18.4611 8.34049 18.4984 8.51159 18.4999 8.68473C18.5015 8.85787 18.4673 9.02957 18.3993 9.18982C18.3313 9.35007 18.231 9.49566 18.104 9.61809C17.9771 9.74052 17.8261 9.83734 17.66 9.9029C17.4938 9.96846 17.3158 10.0015 17.1363 9.99995C16.9568 9.99845 16.7794 9.96248 16.6144 9.89414C16.4495 9.8258 16.3003 9.72646 16.1756 9.60192L9.48339 3.14743L2.79118 9.60192C2.5362 9.83944 2.19469 9.97087 1.84021 9.9679C1.48573 9.96493 1.14665 9.8278 0.895981 9.58604C0.645316 9.34428 0.503131 9.01723 0.500051 8.67534C0.49697 8.33346 0.63324 8.00408 0.879511 7.75815L8.52755 0.381774Z" fill="#FACC33"/>
</svg>
