<svg width="20" height="20" viewBox="0 0 20 20" fill="none" xmlns="http://www.w3.org/2000/svg">
<path d="M16.936 5.46398C17.1046 5.63273 17.1992 5.86148 17.1992 6.09998C17.1992 6.33848 17.1046 6.56723 16.936 6.73598L8.23603 15.436C8.06728 15.6045 7.83853 15.6992 7.60003 15.6992C7.36153 15.6992 7.13278 15.6045 6.96403 15.436L3.06403 11.536C2.90514 11.3653 2.81862 11.1396 2.82264 10.9064C2.82667 10.6732 2.92094 10.4507 3.08563 10.2856C3.25075 10.1209 3.47329 10.0266 3.70647 10.0226C3.93965 10.0186 4.16532 10.1051 4.33603 10.264L7.60003 13.528L15.664 5.46398C15.8328 5.29544 16.0615 5.20078 16.3 5.20078C16.5385 5.20078 16.7673 5.29544 16.936 5.46398Z" fill="#171717"/>
</svg>
