<svg width="170" height="170" viewBox="0 0 170 170" fill="none" xmlns="http://www.w3.org/2000/svg">
<g filter="url(#filter0_b_56_389)">
<rect width="170" height="170" rx="36.0169" fill="#171717" fill-opacity="0.8"/>
<path fill-rule="evenodd" clip-rule="evenodd" d="M77.0763 32.1748C69.9163 32.1754 62.8604 33.8883 56.4971 37.1704C50.1337 40.4526 44.6476 45.2089 40.4963 51.0425C36.345 56.8762 33.649 63.618 32.6332 70.7055C31.6173 77.793 32.3112 85.0206 34.6567 91.7855C37.0023 98.5503 40.9316 104.656 46.1169 109.593C51.3021 114.531 57.5929 118.157 64.4644 120.168C71.3359 122.18 78.5889 122.519 85.6181 121.158C92.6474 119.796 99.2492 116.774 104.873 112.342L124.164 131.633C125.161 132.596 126.495 133.128 127.88 133.116C129.265 133.104 130.59 132.549 131.569 131.569C132.549 130.59 133.104 129.265 133.116 127.88C133.128 126.495 132.596 125.16 131.634 124.164L112.342 104.872C117.561 98.2514 120.811 90.2948 121.719 81.9132C122.627 73.5317 121.158 65.0637 117.478 57.4784C113.798 49.8931 108.057 43.4971 100.912 39.0221C93.7674 34.5472 85.5069 32.1742 77.0763 32.1748ZM53.3051 77.0759C53.3051 75.6749 53.8616 74.3313 54.8523 73.3407C55.8429 72.35 57.1866 71.7934 58.5876 71.7934H71.7938V58.5872C71.7938 57.1862 72.3503 55.8426 73.341 54.852C74.3316 53.8613 75.6753 53.3047 77.0763 53.3047C78.4773 53.3047 79.8209 53.8613 80.8115 54.852C81.8022 55.8426 82.3587 57.1862 82.3587 58.5872V71.7934H95.565C96.966 71.7934 98.3096 72.35 99.3002 73.3407C100.291 74.3313 100.847 75.6749 100.847 77.0759C100.847 78.4769 100.291 79.8206 99.3002 80.8112C98.3096 81.8019 96.966 82.3584 95.565 82.3584H82.3587V95.5646C82.3587 96.9656 81.8022 98.3093 80.8115 99.2999C79.8209 100.291 78.4773 100.847 77.0763 100.847C75.6753 100.847 74.3316 100.291 73.341 99.2999C72.3503 98.3093 71.7938 96.9656 71.7938 95.5646V82.3584H58.5876C57.1866 82.3584 55.8429 81.8019 54.8523 80.8112C53.8616 79.8206 53.3051 78.4769 53.3051 77.0759Z" fill="white"/>
</g>
<defs>
<filter id="filter0_b_56_389" x="-2.88136" y="-2.88136" width="175.763" height="175.763" filterUnits="userSpaceOnUse" color-interpolation-filters="sRGB">
<feFlood flood-opacity="0" result="BackgroundImageFix"/>
<feGaussianBlur in="BackgroundImageFix" stdDeviation="1.44068"/>
<feComposite in2="SourceAlpha" operator="in" result="effect1_backgroundBlur_56_389"/>
<feBlend mode="normal" in="SourceGraphic" in2="effect1_backgroundBlur_56_389" result="shape"/>
</filter>
</defs>
</svg>
